<svg id="Layer_1" xmlns="http://www.w3.org/2000/svg" xmlns:xlink="http://www.w3.org/1999/xlink" x="0px" y="0px" viewBox="0 0 600 600" xml:space="preserve" width="100%" height="100%"><style type="text/css">
	.st0{fill:#FFFFFF;}
</style><path class="st0" d="M189.5,177.9c-16.3-8.8-30.8,1.4-34.4,18.2c-3.1,20.9,3,42-1,62.9c-11.3,44.8-45.2,34.1-30.2,95.8h-0.5 c-4.9-11.1-5.5-23.5-4-35.4c-26.9-7-12.4,50.5-6.2,62.9l6-2.8c2.9,13.5,9.7,25.6,16.2,37.6c4,5.6,13.4,4.5,17.4-0.6 c-8.6-6.2-14.9-15.2-17.7-25.5c20.6,45.2,67.2,40.9,104.7,19.8c-4.2-7-5.3-14.9-4-22.8c-6.9-6.3-10.4-15.9-9.7-25.2 c-8-2-14.8-7.4-18.6-14.6c-0.5,11.7-5,21-14.8,27.5c19.4-21.4,9.1-26.6,15.2-48.5c-18.8-4.7-21.2-29.3-10.6-42.9 c6.7-9.7,17.9-15.6,29.7-16c0.6,0,1.4-0.3,1.8,0.8c-39.5,2-49.9,58.8-10.8,55.4c13.6-3.3,25.7-11.4,38.7-16.5 c19.8-7.9,26.4-37.1,7.6-49.8c-16-12.3-37-10.7-54.8-3.9c-3.2,5.4-5.2,11.7-10.1,16.1l-0.4-0.2c8.7-15.3,17.7-32,13.8-50.2 C209,204.6,203.2,186.8,189.5,177.9z M475.2,316.9C580,319,635.8,186.5,561,113c-92.5-91.7-243.9,8.2-196,129.3 C382.4,286.5,427.8,317.2,475.2,316.9z M505.7,83c3.6,1.7,9.5,1.3,11.6,5c-5.6-2.9-16-2.4-19.3-6.7C500.7,81.9,503.2,82.3,505.7,83z  M381.8,223.4c-1.8-17.4,0.5-34.7,6-51.2c-2.3-6.2-4-12.5-4.1-19.1l-7.2,4.9c0.9-7.2,4.4-22,10.4-26c0.8,3.3-0.4,6.6,0,10.1 c2.3-3.4,4.3-6.2,7-9.4c4.5,5.8,0.8,14.7,2.7,21.6c6.4,11.4,2.3,24,3.3,36.3c1.6-13.2,3.6-26.4-2.9-38.5c-0.5-6.9,2.2-14.3-2.3-20.2 c5.2-7.6,14.3-13.3,22.4-17l-4.6,6.5c4.2-1.9,7.3-5.3,11-7.3c3.8,0.7,8.1-1.9,11.6,0.2c2.4,2.2,4.8-1.1,7.3-1.5 c-0.3-0.9-0.6-1.7-0.9-2.6l5.5-2.9l4.4,5.8c1.7-1.1,3.8-1.1,4.8-3.1l2.5,1.1c-0.3,2-0.5,3.9-0.8,5.9c-8.7,6.9-14,15.4,0.6,19 c2.8,0.4,5.7-1.6,8.2,0.5c4.6,2.2,9.3,7,14.1,7.8c4.2-4-2.9-8.8-5.1-12.5c0.2-0.6,0.4-1.5,0.6-2.4c1.4-0.4,2.8,0.5,4.4-0.6 c-2.5-3.4-7.6-4.9-8.2-9.5c3.6-1.3,7.5-0.2,11.2,0.2c1.4,2.1,2.8,4.6,4.3,6.5c12.9-5.6,28-0.6,39,7.3c-4.5,1.5-10-0.7-14,2.8 c-4.8,3.1-1.7,9.9,3.7,9.4c-0.6,2.4-1.2,4.6-1.7,6.7c-4.8,1.1-5.9,2.2-8.5,7.2c0.7,1.6,2.5,2,3.6,3.3c-2.7,7-8.5,16.1-2.8,23.1 c-3.4,6.5-11.6,15.8-3.7,22.2c2.1,1.7,4.4,3.8,4.3,6.8l-1.4,1.1c-1.6-2.6-4-3.8-6.6-5c-9.5-11.4-15,3.5-26.1,0.6 c-1.8,2.7-3,5.7-3.5,8.8c-2.1,0.9-5.6,0.7-5.8,3.6c-0.1,4.1-1.6,12.1,4.2,12.6c-0.3,7.3,2.5,11.9,10.3,10.9c5.7-8.8,5-7.3,14.7-12.5 c2.8,13.7-5.1,18.1,11.9,13.7c1.5,7.7,7.2,12.6,15.2,11.5c5.6-4.6,3.8-1.3,9-3.7c-8.1-1.7-7.1,5.1-13.4,2.4 c-10.8-2.1-6.2-11.3-10.9-11.6c-3.3,0.6-6.2,1.4-9.6,1.8c0.1-5.4-0.3-10.7-1.1-16c-1.5,0.8-6,3.1-7.5,4c-4.6,0.9-6.3,4.5-7.9,8.5 c-1.2,2.3-4.4,0.4-6.3,0.1c-4.1-1.4-2.9-6.2-3-9.7c-6.3-0.1-4.7-7.6-4.6-11.9c0.6-2.2,3.8-1.7,5.6-2.4c0.5-3.1,1.5-6,3.1-8.7 c9.2,2.7,13.9-7,20-4.6c4.3,2.9,8.9,5.2,12.3,9.1c5.4-2.2,0.9-7.7-2-9.8c-7.6-6.7,1.7-15.1,4.4-22c-6.3-6.2,0.3-15.9,2.6-22.8 l-3.8-3.1c1.5-3.4,3.5-6,7.8-5.8c1.2-3.1,2.2-6.2,2.8-9.5c-4.6,0.9-8.8-2.6-4.8-6.6c4.4-4.4,11.1,0.2,15.3-4 c-10.7-9.4-27-13.6-40.5-8.8c-3.1-7.6-5.8-6.6-13.1-6.9c-8.6-0.1,0,7.7,2.8,10c-3.1-0.6-2.8,1.7-3.4,3.7c0.1,4.3,7.5,6.6,6.1,11.8 c-3.6-2.2-10.1-6.1-13.7-8.2c-1.5-0.9-3.3-1.2-5-0.7c-4.6,1.2-8-1.2-11-4.1c-1.3-5.2,4.6-9.5,8.1-12.8c0.3-2.1,0.7-4.6,1.1-7.2 l-4.9-1.9c-0.2,0.8-0.3,1.5-0.5,2.2l-2.8,1.2c-5.9-6.8-2.6-7.1-11.5-2.4c0,0.6,0.2,1.6,0.3,2.8c-4.7,3.5-7.1-1.7-15.6,1l-0.2-0.4 l10.8-7.8c-7.2,1.5-14.3,3.6-21.1,6.3c18-24.9,50.9-32,80.1-29.9c2.9,0.5,4.2,4.3,7.6,4.2c6.3,0.3,11.8,3.9,17.9,4.6 c-0.5-1-0.8-1.6-1.1-2.3c57.5,21.4,88,87.3,69.2,144.5c-1.3-0.9-2.2-2.6-4.3-2c-0.5-0.8-0.9-1.6-1.4-2.4c-6.9-0.8-7.3,2.2-12,5.7 c-5.4-2-10.8-0.8-16.2,0.3c0.2,0.8,0.4,1.3,0.6,2c-5.1,1.6-10,3.8-14.5,6.7l-1.6-0.9c-3.4,4.4-6.2,9-9.3,13.7 c3.1-0.8,6.3-9.4,9.2-12.1l1.8,0.6c5-3.2,10.5-5.7,16.2-7.3l-1.1-2c5.9-1.5,9.6-1.5,15.2,0c4-2.9,5-6.5,11-5.7 c1.8,3.4,3.8,1,6.1,4.8c-7.8,23.1-22.5,44-42.3,58.4c-7.9,5.2-12.2-5.1-18.9-7.6c0.5-4.2,3.4-8.1,1.7-12c-1-3.5,1.4-6.9,1.8-10.6 c-1.5-1.8-5-6.3-6.7-2.2c-0.4,0.9-0.7,2-1.7,2.6c-19.5,4.7-11.3-8.6-28.8-6.1c-6.3,0.9-11.7-5.3-18.1-2.3c-6.8,2-6.9,1.8-13.6-0.5 c-19.4-4.3-29.1-22.5-41.6-36c-2,2.9,8.7,19,11.7,21.4c-1.7,3.1-19.2-21.1-18.6-24.4c-3.8-7.7-10.5-13.8-13.5-22 c-0.9,5.2,8.5,14.5,11.2,19.5c2.7,5.9,4.7,12.3,9.6,17.1c2.7,1.9,8.9,13.1,11.9,10.7c0.5-0.4,0.5-1.3,0-1.7 c-4.7-4.8-8.9-11.3-10.6-17.7c18.2,22.8,28.8,39.6,60.4,34.3c6.4,4.1,13.9,0.8,20.8,3.1c2.8,0.8,3.7,4,6,5.5 c4.7,1.5,10.5,1.1,15-0.7c0.4-1.1,0.8-2.2,1.2-3.3c2.6-0.3,3.2,1.9,4.6,3c-0.9,3.1-1.8,6.1-2.7,9.3c3.3,4-0.1,8.8-0.9,13.3 c4,2.6,8.2,5.4,11.6,8.9c1.2,1.9,2.8,0.8,4.6,0.8c-44.6,32-110.7,25.7-149.1-13.3c-13-11.3-18.2-27.9-21.1-44.3 c-1.3-4.7-2-9.2,1.7-13c1.6,2.6,2.9,5.4,3.9,8.3C379,229.2,382,226.7,381.8,223.4z M374.9,412.4c-35.7,16.2-80.4,38-117.5,49.7 c11.8,6.8,23.2,14.5,34.1,22.8c0.7,0.5,1.6,1.8,1.4,2.5c0.6,11.9,2.8,23.3,4.2,35.4c1.5-3.1,3.3-5.1,3.6-8.2 c0.8-8-3.7-33.9,0.8-38.3c16.1-11.5,32.1-23.1,47.2-35.9c-2.6-0.3-32,18.1-27.3,12.2c4.7-2.3,24.5-13.3,29.6-15.4 c1.7,0.2,2.8-1,4-1.9c4.9-4.7,11.2-7.7,16-12.6c-15.8,6.7-42.2,19.5-57.7,26.3c-0.7,0.3-1.5,0.9-2.2-0.6 c20.3-8.8,39.7-18.9,60.1-27.4l0.4,0.4l-0.6,1.3c6-4,10.9-9.5,16.7-13.6c-15.8,25.6-31.5,52.4-44.5,79.5c1.1,0.4,2-1.1,3,0.2l-1,0.9 c3.3,3.4,7.7-1.2,8.1,6.1c-1.3,0.8-2.8,1.5-4.2,0.7c0,0,0-0.6,0-1h1.6l0.1-0.3l-2.9-1.9c-5,2.1-3.8-2.9-6.8-4.4l29.7-55.5 c-13.6,15.2-28.1,30-36.6,48.8c-3-0.6,4.9-10.2,5.1-12.6c-7.3,7.7-14.2,15.7-22.4,22.8c12.8,3.3,24.7,8.1,37.1,11.8 c13.2-33.1,24.3-67.3,38.2-100C386.4,407.2,380.7,409.7,374.9,412.4z M311.9,455.9c1.1-0.7,2.1-0.1,3.7,0c-1.7,1.8-2.4,1.9-4,0.7 C311.7,456.3,311.7,456,311.9,455.9z M289.1,459.3c-0.3,0.1-0.7-0.2-1.1-0.6c1.5-0.5,7.2-4.5,7.4-1.9 C293.2,457.6,291.2,458.5,289.1,459.3z M296.4,466.8l-1.6-1.7l6.4-3.3l1.5,1.7L296.4,466.8z M302.1,451.9c1.5-1.2,1.8-1.3,3.2-0.3 C304.4,452.8,303.8,452.9,302.1,451.9z M340,488.4c-2-1.1-1.6-3.7-0.1-5c-0.1-1.3,1-2,1.6-3c1.4-1.4,1.1-3.6,2-5.3v6l-1.2-1.1 c0.3,1.1,0.5,1.8,0.7,2.5l-0.3,0.2l-0.9-1.1h-0.2c0.2,0.7,0.3,1.5,0.6,2.7c-0.6-0.7-1-1-1.3-1.4l-0.3,0.1l0.9,2.9l-0.4,0.3 c-0.4-0.7-0.7-1.4-1-2.1C338.8,485.9,339.8,487.1,340,488.4z M354.3,490.9c-1-0.1-2.3,0.1-1.9-1.4c0.4,0.1,1.3,0.1,1.7,0.1 c-2.3-4.3-8.2,1-7.9-6.5c1-0.4,1.9-1.1,3.3-0.5l-1,1.3c4.3,3.5,6.7-1.9,8.2,5.9C356,490.2,355.1,490.6,354.3,490.9z M175.7,514.8 c-11.6-10.1-21.3-22.5-34.5-30.5c-27.4-15.8-61.8-30.2-91.1-42.6c-1,1.3,1.6,3-0.2,4.3l-1-2c-4.4,4.5,1.4,9.8-5,11 c-0.9,0-1.4,2-2.6,0.6c0.5-1.3-0.9-1.7-1.1-2.7c0-1-0.4-2.5,1.1-2.6c0.7,0.9-0.6,2.2,0.9,2.7c0.8-1.8,3-3.7,1.9-5.9 c-1.5-3.5,3-6.1,6-5.5l-1.4-0.9c0.9-2.8,4.9,0.9,6.8,1.2c25.6,11.4,51.4,22.5,76.5,35c-22.8-18.9-47.6-35.7-74.9-47.7l0.8-1.3 l23.7,11.5c-7.7-6.1-14.9-13-21.3-20.5c-16.3,10.8-32,22-49.6,30.7c56.1,20.6,111.6,41.5,165.7,66.2 C176.4,515.2,175.9,515.1,175.7,514.8z M51.2,436.3c2-0.5,4.4-2,4.9,1c0.9-0.1,1.8-0.5,2.8,0.5c0.9,1,2.6,1,3.5,2.2 c1.4,0.1,3.4-0.2,4.6,1.1c-2.5-0.5-4.8-0.1-7.3,0.3l1.5-1.4c0-0.1-0.1-0.2-0.2-0.3l-3.2,1.3l-0.2-0.4l2-1.6c-1.5-0.5-2.4,1-4,0.7 l2.2-1.8c-2-0.3-3.1,1.1-5.1,1.5l2.7-3.1c-2-0.3-4.1,0.3-5.6,1.6C49.8,437.3,50.4,436.6,51.2,436.3z M58.1,449.4 c-1.3,0.2-0.7-1.2-1.5-1.7c-0.8,1.5-1.7,3-2.4,4.4c2.7,4-1,6.8-4.8,7.6c-0.4-0.8-3.2-6.8,0-5.4c-0.3,1-0.1,2,0.3,2.9 c0.9-2.3,3.1-3.8,2.2-5.9c-1.8-3.7,2.4-5.7,5.5-5.9C57.6,446.7,58.6,448.1,58.1,449.4L58.1,449.4z M50,441.8L50,441.8L50,441.8z  M146.2,445.6c-9.6-21-21.4-41.1-28.7-63c0,0-0.2,0-0.4-0.2c-11.8,11.1-28.9,19.5-42.2,28.6c3.3,8.4-0.4,20.3,9.1,24.8 c-1.4-7.6-2.2-15.2-2.4-22.9c17.4,18.1,34,35.7,51,53.8c0.5-2.7-17.6-29.1-15.3-31.3c6.3,11,12,22.1,18.2,33.1 c7,10.1,16.8,18.1,25.2,27c-10.3-22.9-22.9-45-34.2-67.5c-0.7-1.3-1.3-2-0.5-3.5c7.9,14.6,15.3,29.4,22.9,44.2 c9.4,18.9,14.6,33,31.9,46.5l0.2-0.3C168.7,492.2,157.5,468.9,146.2,445.6z M103.8,415.1l-4.8-8.1c0.7-0.7,1.3-1.1,2.1-1.7 c1.6,2.7,3.1,5.3,4.8,8L103.8,415.1z M114.2,430.5l-2.1-0.7v-3.2l2.1-0.3V430.5z M116,406.1c-1.7-2.8-3.2-5.8-4.4-8.8l2.2-1.5 c1.5,2.9,2.9,5.8,4.4,8.8L116,406.1z M122.6,418.3l-1.9-0.3C120.1,413,123.3,414,122.6,418.3L122.6,418.3z M260.4,308.7 c-12.1,6.1-24.4,12.1-37.1,17.1c-3.8,1.4-8,1.9-12,1.6c-1.5-0.2-1.7,0-2.3,1.5c-4.7,12.2,1.9,26.5,14.3,30.9 c20.7,8,35.9-12.7,52-21.9c23.7-10.6,23.4-36.7,1-48.5C272.9,297.1,268,304.4,260.4,308.7z M266.9,387.8 c11.1-6.7,17.5-18.6,27.9-26.1c18.7-11.9,20.8-31.4-0.2-41.9c-4.4,16.5-23.9,21.2-35.4,32c-8.8,7.3-19.5,13.6-31.3,11.5 C224.9,384.1,249.3,399.7,266.9,387.8z M50.6,377.7c-0.1,0.4,0.2,0.8,0.3,1.3h0.4c7.1-30.7,24.7-58.1,36.5-87.1 c5.4-12.4,11.6-24.2,18.9-35.6l-48.9-2.2c0,20.4-2.6,40.5-3.7,60.8c3.5-10.4,8.1-20.4,12.1-30.6c1.3,0.3,0.8,1,0.6,1.5 c-4.4,10.9-9.1,21.9-12.5,33.1C50.1,337.7,54.3,358.4,50.6,377.7z M86.8,260.5l2.3,0.9l-3.1,7.9l-2.3-0.6 C84.5,265.9,85.5,263.2,86.8,260.5z M81.4,277.3c0.3,0.7,0.6,1.3,0.9,1.9l-2.4,1.1c-0.2-0.6-0.4-1.2-0.8-1.7L81.4,277.3z M72,260.2 l2.4,0.5c-0.8,2.6-1.5,5-2.2,7.6l-2.4-0.5C70.5,265.2,71.3,262.7,72,260.2z M69.4,276.3l1.2,2l-2.6,1.3l-0.7-2.2L69.4,276.3z  M54,339.2c8.3-17.3,14.3-35.5,22.3-52.9c0.3-0.6,0.5-1.4,1.6-0.9c-9,18-14,39.2-24.3,55.7C53.3,340.4,53.9,339.8,54,339.2L54,339.2 z M34.3,332.9c5.1,13.6,9.8,27.2,14.9,40.9C51.1,336.2,39,299,28.1,263.5c11.3,22.7,14.6,51.4,21.1,76.3c0.6-26.5-0.7-53.3-8.4-78.8 c2.5,0.1,4.7,16.4,6.3,19.7h0.4c-0.4-5.7-0.1-11.4,0.7-17.1c2.8,2.8,3.5,6.6,5.8,10.2c1.7-8-4.5-15-6.5-22.5c-14.4-0.6-28.6-2-43-4 C13.7,276.2,23.5,304.7,34.3,332.9z M37,268.6l-1.1,0.9c1.6,1.2,1.6,2.9,1.9,4.6c-0.5,2.8,2.8,4.3,2.7,7c-1.5-2.7-3.7-4.7-5.7-7 l2.4,1.3l0.2-0.3l-3.1-2.6l0.1-0.2l2.4,1.2L37,273l-3.3-2.8l0.1-0.3l2.7,1.4c0.1-0.1,0.2-0.3,0.2-0.4l-4.4-3.6 c1.6-0.1,2.5,1.4,4.4,0.9l-5-4.4C34,264.6,36,266.4,37,268.6z M28.2,271.4c0.6,0.5,1.2,1.1,1.8,1.6c-1.2,2.9-1.2,2.9-2.4,3l1-2 c-1.7-0.1-3.3-0.1-5,0.2c-1.2,5.3-5.4,2.9-8.1,0.2c1.3-1.2,0.4-5,3.5-3.6c-0.5,0.9-2,1.1-1.3,2.6C23.7,274.8,23.3,267,28.2,271.4 L28.2,271.4z M13.3,262.9c0.2-1.4,1.3-2.2,2.8-1.5c-0.7,1-2.1,1.2-1.5,2.8l4.6-0.4c1.9-4.8,5.2-2.9,7.8,0.1l-1.7,3.3 c-1.4-1,0.2-1.5,0-2.4c-1.5-0.2-3.1-0.2-4.6,0.2c-1.6,5.2-5.1,2.8-8.1,0.3C12.8,264.4,13.1,263.7,13.3,262.9L13.3,262.9z  M346.8,343.1c-2.6-15.6-3.2-31.8-7.2-47c-3.2-6.2-6.3-12.5-9.2-18.9c2.5,33.3,3.1,66.7,4.1,100.1c13.6-0.3,26.3-5.8,39.8-6.9 c-0.5-1.5,0.1-3.2-0.8-4.5c-6.3-10.8-11.6-22.1-16.5-33.5c0.5,4,1.6,7.8,1.9,11.8c-2.7-1-1.8-7.5-3.1-10.1 c-1.6-11.5-8.2-21.5-13.2-31.9c0.8,13,4,26.3,5.1,39.5C347.8,342.4,347.9,343.1,346.8,343.1z M361,357.7l1.4,7l-1.8,0.4 C360.8,363.7,357.7,357.2,361,357.7z M358.2,348.7l1.3,1.4c-0.3,0.6-0.6,1.2-1,2l-1.6-1.7C357.3,349.8,357.7,349.3,358.2,348.7z  M348.8,358c0.5-0.3,1.1-0.3,1.6-0.3v7.3h-1.6V358z M347.7,351c-0.4-0.4-0.8-0.8-1.5-1.5l1.5-1.3C348.9,349.4,348.9,349.4,347.7,351 z M275.9,410.2c9.1-7.4,17.4-15.7,26.8-22.8c10.1-6.9,11.9-24.3,1.6-31.8c-20.2,14.2-37.8,50.9-66.7,33.7 C233,415.4,256.6,423.9,275.9,410.2z M339.8,284.5l-0.3,0.3c14.5,25.5,33.1,49,54.9,68.5c-0.3-0.7-0.2-1-0.2-2l0.9,1.1 c2.8-2.1-0.9-5.3,4.1-3.9c0.8,2,0.8,2,0.2,2.9c-0.2-0.6-0.3-1-0.4-1.8c-2.9,1.4,0.2,4.8-3,4.3c-1-0.2-1.3,0.5-2,1.1 c-11.6-10.2-21.5-22.2-31.8-33.7c6.9,12.7,13.6,26,24.6,35.7c0.4,0.4,1,0.8,0.2,1.7c-2.4-1.7-4.2-4.2-6.6-6 c8.6,10.9,0.2,25.7,7.4,36.8c0.6-7.9-2.6-17,0.7-24.3c9-2.9,18.6-2,27.7-4.6C390.9,335.2,364.7,310.5,339.8,284.5z M391,355.1 c-1.1,0-1.4-0.5-2-1.9c-1.8-0.8-3-2.6-4.4-4c2.2,0.4,4,1.7,4.4,4h1.9l-1.2,1.1l2.6,0.8C391.8,355.1,391.3,355.1,391,355.1z  M390.1,347.5l0.9,1l1.2-1.4c-0.5-3,0-3.4,3.1-2.6c0,0.9,1.2,1.6,0.3,3c-0.2-0.7-0.4-1.1-0.7-1.9c-0.6,0.7-1.1,1.2-1.5,1.7 C394.2,351.3,389.4,350.6,390.1,347.5z M94.2,151.7c-3.8,6.9-9.3,12.7-12.9,19.8c1.8-1.5,2.9-3.5,4.9-5c0.3,1.2-0.5,1.6-1,2.1 c-6.4,6.3-11,14.1-15.1,22c6.3-5.7,12.4-12.2,18.4-18.2c0.4-0.4,0.7-1.1,1.5-0.6c-7.2,8.7-16.6,15.8-23.4,25 c-5.3,9.4-9.9,19.3-14.6,29c17-24,39.1-43.3,58.7-65.1c4.5,7.7,8,15.1,9.6,23.9c2.3-8.7-4.7-17.6-8.4-25.2l2.6-2.9l-4.8-1.3 l-0.2,0.3l2.3,3.9l-1.2,1.1c-0.3-0.4-4-6.3-4.4-6.3C106.3,154.2,94.2,151.7,94.2,151.7z M88.8,164.7c0-1.1,0.7-1.3,1.5-1.5 C90.3,164.7,90.3,164.7,88.8,164.7z M92.4,169.1c0-1,0.5-1.2,1.5-1.2C94,169.3,93.4,169.5,92.4,169.1L92.4,169.1z M93.9,159.9 c-0.2,0.2-0.7,0.2-1.1,0.3c-0.2-1.2,2.7-5.3,3.6-3.1C95.6,158.1,94.8,159.1,93.9,159.9L93.9,159.9z M100.8,162.1 c-1.3,1.1-2.1,3.1-4.1,2.8c1-1.6,2.3-3,3.9-4.1C100.7,161.3,101,161.9,100.8,162.1L100.8,162.1z M286.9,242.9 c26.5-2.8,21.6-10.4,36,13.9c1.5-9.9-4.9-13.3-9.3-20.9c-0.9-9.9,2.8-20.7,3.4-31c-3.3,5-5.2,11.7-8.6,16.6 c3.2-10,10.7-18.8,10-29.8c-5.1,9.8-9.2,19.6-14.2,28.9l-0.5-0.2c4.3-10.4,16.7-30,16.9-41.5l-35.4,64.1 C285.9,242.9,286.4,242.9,286.9,242.9z M306.3,224.7l0.5,0.3l-0.9,1.7l-0.6-0.4C305.6,225.8,306,225.2,306.3,224.7z M304.1,230.8 c-0.2,1.8-0.9,3.4-2.1,4.8C301.9,233.7,302.7,231.9,304.1,230.8L304.1,230.8z M301.9,224.2l0.4,0.2c-0.2,0.4-0.4,0.9-0.6,1.3 l-0.5-0.3L301.9,224.2z M299.5,230c-0.1,2.1-1.4,4.1-3.3,5.1C297,233.3,298,231.5,299.5,230z M323.9,212.5 c-0.2,7.2-0.4,14.4-0.6,21.6c10.8-2.8,22.1-0.5,33.3-1.8c-11.3-17-21.4-34.4-31.4-52c-3.4,17.2,6.3,32.2,14.9,46.3 c-6.9-7.4-10.6-18.6-15.6-28.3c-3.2,11.8,4.2,21.4,8.4,31.4C329.3,224.4,326.3,218.6,323.9,212.5z M345.9,222l-0.4,2.2h-0.5 c0-0.3,0-0.5-0.2-0.8c-1.9,0-1.5,4.1-3.9,2.9c-0.6-0.4-1-2,0.4-1.6C343.9,224.5,342,220.4,345.9,222L345.9,222z M338.6,222.9 c-0.3-0.4,0-1,0-1.4c3.3,0.3,1.3-4.2,5.2-2.8c0,0.7,0.3,1.6-0.7,2.4c0-0.4,0-0.7,0-0.9l-0.4-0.2C341.2,221.6,341.2,224,338.6,222.9z  M337.2,225.6c-0.2,0.3-0.6,1-0.9,1.3c0.1,0,1.6,0,1.7,0c0,0.1,0,0.3,0,0.4c-0.2,0-1.6-0.5-1.7-0.4c-0.6-1.2-1.1-2.4-1.8-3.7 C337,222.6,336.3,225.4,337.2,225.6L337.2,225.6z M62.9,197.9c6.9-12.7,10.3-27,13.1-41.1c-1.1,0.3-1.3,0.1-1.6-0.8 c-2.4,1.4-2.4,1.4-3.4-0.6l1.3-1.2c0.2,0.5,0.3,0.9,0.5,1.3c1.2-0.7,2.4-1.4,3.5,0.3c0-1,0.1-1.7,0.2-2.1c-1.3-1.1-1.9-0.8-3.3-0.2 c-1.6-0.3-2.1-1.5-0.1-2.8c0,0.4,0.1,0.8,0.2,1.3l2.2-0.9l1.8,1.3l0.8,2.4l0.6-0.9c0.8,2-1,3.6-0.5,5.5c-0.8-1.4-0.9-3.2-0.1-4.6 c-0.7-0.1-0.8,0.5-0.9,1c-1.3,8.1-3.9,16.1-5.6,24.1c5.7-8.1,7.7-17.9,9.7-27.4l0.6,0.1c-0.1,2.9-1,5.7-1.4,8.5 c1.5-1.9,3.1-5.3,4.4-7.4l3,4.4c0.7-0.8,1.2-1.5,1.8-2.2l-4-5.7c-3.2-0.9-9.9-2.3-13.2-2.9c-3.4,6.9-22.6,73.2-23.6,81.8 C53.5,218.7,57.8,208,62.9,197.9z M78.1,154.9c-0.4,0-0.6,0-0.7,0.2C77.5,154.9,77.7,154.8,78.1,154.9z M78.1,154.9L78.1,154.9 L78.1,154.9z M95.7,138.9l10.7,15.1l0.6,0.5l2.2,0.3c-3.7-5.5-7.5-10.4-10.9-15.7c42.6,28.2,36.5-14.9,30.2-43.4 c12.2,28.2,23.9,52.9,53,21.5c-6.9,13.4-1.6,43.2,18.5,34.2c-23.9,4.2-22.6-27.2-13.7-41.3c-1.8,0-2.2,1.1-2.9,1.8 c-6,6.4-11.6,13.5-19.9,17c-24.7,8.5-30.7-35.8-39.5-49.6c1.8,26.1,25.5,92.7-26.8,56.5C92.7,132,92.7,136.1,95.7,138.9z  M364.8,137.7c-3.7,4.6-7.7,8.9-11.1,13.7c0.5,1.7,4,0.3,2.8,2.3c-1-0.1-2.7-0.9-3.7-1.1l-0.6,0.9c0,0.2,0,0.2,0,0.3 c0.6,1.3,3.5,0.1,2.9,1.8c-0.2,0.5-0.5,0.3-0.8,0.4c-0.4-1.2-1.4-0.4-2.2-0.6L351,154c0.3-0.7,0.6-1.4,0.9-2.1l-1.4,0.4 c0.6-0.8,1-1.4,1.4-2l0.3,0.1c-0.1,0.5-0.3,0.9-0.4,1.4c4.1-4.4,7.4-9.4,11.2-14c-7,1.6-10.5,8.8-15,13.8l-0.4-0.4l7.7-9.9 c-6.4,2.7-12.6,5.7-18.7,9.1c7.5,3.9,14.4,9,20.2,15.2c2.8-10.8,7.2-21.2,13-30.8C368,135.3,366.2,136.3,364.8,137.7z M352,152 L352,152L352,152z M342.3,140.3c6-2.9,12.6-4.1,18.9-6c-13.6,0-26.9,2.3-40.6,4.4l12.6,5.7C336.1,143.1,339.2,141.6,342.3,140.3z  M336.6,137.7c0.1,0.1,0.1,0.2,0.2,0.3l-0.3,0.1l-0.3-0.2C336.3,137.8,336.4,137.7,336.6,137.7z M327.8,139.9v-0.5l3.9-0.9l0.1,0.6 L327.8,139.9z M332.3,140.8l1.5-0.1c0,0,0,0.2,0,0.2l-1.5,0.4C332.3,141.2,332.3,141,332.3,140.8z M336.1,157.9c1-2.6-1.1-6,0.4-8 c9.1-5.9,19.4-10.3,29.3-14.7c-9.7,1.7-28.5,7.6-31.4,10.2C334.9,149.7,335.5,153.8,336.1,157.9z M308.4,507.9 c-0.8,1.6-1.8,3.1-2.4,4.7c0,0,0,0,0.2,0.1l16.2-15.8l-6.4-2.7C313.5,498.8,310.9,503.3,308.4,507.9z M337.9,165.2l8.4-6.6 c-2.8-1.9-5.4-3.8-8.4-5.5V165.2z M344.6,491c0.3,1.3,0.3,1.3,1.7,1.5C345.9,491.7,345.2,491.5,344.6,491z M349.4,492.6l1.9,1.1 C351.1,492.8,350.7,492.3,349.4,492.6z M500.1,95.7c-1.6-1.1-0.1-3-1-4.3c-3.6-3.4-5.1-7-10.6-5.2c-5.6,0.4-11.7-0.9-17,1 c-1.5,1.6,1.5,3.2,1.2,5.2c3.8,7.4,4.5,5.2,11.4,7c4.2,1.2,7.6,6,12.1,5.1c3.6,0.1,7.3,0.9,10.9,0 C504.9,101.1,502.5,98.7,500.1,95.7z M499.6,103.5c-8.5,1.1-14-7.4-22.6-6.5l-2.9-4.2c0,0-0.2-0.3-0.2-0.4c0.7-2-1-2.9-1.9-4.2 c6.7-2.2,14,0.2,21.3-0.9l4.5,5.4l0.5-0.4c-1.2,4.7,4.9,7.2,6.4,11.2C502.8,103.5,501.2,103.5,499.6,103.5z M479.9,101.6 c-7.3-2-12.4-3.3-17.7,3.3c2.2,2.4,6.4,1.1,7.9,4.5c-0.8,1.1-2.6,1.4-2.9,3.3l3.3,1.8c5.2-2.9,11.2-1.3,16.8-0.4 c-0.2-1.9-0.4-3.5-0.6-5.1l3.6-2.4C487.1,104.3,483.3,103.2,479.9,101.6z M485.5,109c-0.1,1.3-0.1,2.5,0.2,3.8 c-4.8-1.2-9.8-1.9-14.4,0.2c-1,0.5-2.2,0.2-2.8-0.7l3.2-2.6c-1.4-3.4-4.1-4.4-7.5-4.7c1.7-1.6,3.1-2.8,5-3.9 c6,0.1,13.1,2.6,18.4,5.3C486.9,107.2,485.8,108,485.5,109z M524.8,224.3c-8.5-1.1-16.2-1-24.2,2.3c2.8,3,9.8,0.4,14.1,1.3 c1.6,0,3.3-0.6,4.7,0.8c3.5-0.2,7.3-1.8,10.3-3.8C528.2,224,526.5,224.5,524.8,224.3z M518.8,227.3c-4.9-1-10.6-1-15.5,0.1 c6.5-4.2,14.3-1.9,21.7-1.7C523.6,227.6,520.9,228.3,518.8,227.3z M531.7,224.7c0.5,0.2,1,0.4,1.6,0.6c-0.5,0.7-0.9,1.2-1.5,2 c5.3,1.3,9.6-1.8,12.9-5.7c-2.7-1.3-6.3-0.8-9.1-1C534.9,222.1,529.5,222.8,531.7,224.7z M536,221.7c1.7-0.7,3.6,0.3,5.5,0.5 c-2,2.3-3.5,5.2-7.4,4c0-0.4,0.2-0.8,0.4-1.3l-1.7-1C534,223.1,534.9,222.4,536,221.7z M518.6,209.7c-2.4,0.1-4.6-2-5.5,1.3l4,3.5 C517.7,212.5,518.1,211.2,518.6,209.7z M514.1,210.8c0.9-1.5,1.9,0,3.1-0.3c-0.3,1-0.4,1.6-0.7,2.4L514.1,210.8z M520.8,232.5 c-1.4,0.8-2.8,1.5-4.3,2.1c2.8,0.4,7.2,0.2,8.6-2.7C523.8,231.5,522.1,231.7,520.8,232.5z M523.3,233l-2.4,0.8l-0.1-0.4l2.3-0.8 C523.2,232.6,523.3,232.8,523.3,233z M347.6,485.4c0.4,0.6,0.7,1.3,2.2,1L348,485L347.6,485.4z M353,486.7l1.6,0.9 C354,486.6,354,486.6,353,486.7z M45.5,447l2.2-3.6C45,444.4,44.5,445.4,45.5,447z M43.8,453.9c1.9-1,2-1.3,1.7-3.5 C44.7,451.4,44.1,452.6,43.8,453.9z M53.3,450.8c0.8-1.3,1.4-2.4,2.2-3.8C52.9,448.1,52.5,448.7,53.3,450.8z M51.4,457.4 c2-0.6,2.3-1.2,1.9-3.5C52.7,455.1,52,456.1,51.4,457.4z M23.5,272.4l0.3,0.5l3.9-0.2C26,270.5,24.6,270.8,23.5,272.4z M22.1,274.4 l-4,0.6C20,276.8,20.8,276.7,22.1,274.4z M24.9,263.3c-0.7-1.7-4.6-2.5-4,0.3L24.9,263.3z M17.5,266.9c0.8,0,1.5-0.9,1.4-1.7 l-3.9,0.5C15.4,266.6,16.5,267.1,17.5,266.9z"></path></svg>